<?xml version="1.0" encoding="utf-8"?>
<!-- Generator: Adobe Illustrator 19.1.0, SVG Export Plug-In . SVG Version: 6.00 Build 0)  -->
<svg version="1.1" id="Ebene_1" xmlns="http://www.w3.org/2000/svg" xmlns:xlink="http://www.w3.org/1999/xlink" x="0px" y="0px"
	 viewBox="0 0 1294.4 308.4" style="enable-background:new 0 0 1294.4 308.4;" xml:space="preserve">
<style type="text/css">
	.st1{fill:#FFBB00;}
	.st2{fill:#FFFFFF;}
</style>
<g>
	<path class="st1" d="M453.2,141h36.3c17.5,0,17.7,9.9,15.3,16.6c-2.4,6.7-6.9,10.3-12.8,13c5.2,2,9.1,6.8,5.7,16.5
		c-4.7,13.3-18.7,20.2-30.4,20.2h-37.6L453.2,141z M455.8,191.5h12c4.3,0,8.4-1.2,10.2-6.3c1.4-3.9-0.2-6-5-6h-12.8L455.8,191.5z
		 M464.5,166.8h10.8c4.3,0,7.4-1.2,8.9-5.5c1.2-3.3-1.2-4.6-5.4-4.6h-10.8L464.5,166.8z"/>
	<path class="st1" d="M523.1,141H578l-6,17h-34.5l-2.9,8.3h31.3l-5.6,15.8H529l-2.9,8.3h35.5l-6,17h-55.9L523.1,141z"/>
	<path class="st1" d="M597.4,158h-18.6l6-17h57.6l-6,17h-18.6l-17.5,49.3h-20.4L597.4,158z"/>
	<path class="st1" d="M661.3,141h20l0.7,66.3h-21.2l0.6-9.5h-21.1l-6.3,9.5h-20.5L661.3,141z M662.2,183.6l1.3-20.4h-0.2l-13.7,20.4
		H662.2z"/>
	<path class="st2" d="M711,141h51.3l-6,17h-30.9l-2.9,8.3h26.5l-5.6,15.8h-26.5l-9,25.3h-20.4L711,141z"/>
	<path class="st2" d="M770,141h20.4L773,190.3h29.4l-6,17h-49.8L770,141z"/>
	<path class="st2" d="M827.2,141h20.4l-23.5,66.3h-20.4L827.2,141z"/>
	<path class="st2" d="M886.3,200.6c-6.6,5.9-14.6,8.4-21.8,8.4c-19.6,0-26.3-15.2-19.6-34.1c9-25.3,30.3-35.4,45.3-35.4
		c16.9,0,24.3,9.2,21.8,24.8h-19.6c1-4.8-1.9-8.3-6.7-8.3c-14,0-18.8,14.8-20.4,19.3c-2.2,6.2-3.5,17.1,8.9,17.1
		c4.7,0,10.4-2.4,13.2-7.3h-9l5-14.2h27.1l-12.9,36.5h-12.9L886.3,200.6z"/>
	<path class="st2" d="M932.5,141h20.4l-8.2,23h19.1l8.2-23h20.4L969,207.3h-20.4l9.3-26.3h-19.1l-9.3,26.3h-20.4L932.5,141z"/>
	<path class="st2" d="M1011.9,158h-18.6l6-17h57.6l-6,17h-18.6l-17.5,49.3h-20.4L1011.9,158z"/>
</g>

<path class="st1" d="M363.6,193.1c-15.2-6.4-26-15.9-36.9-20c5.7-2.5,11-6.1,14.3-9.2c3.6-3.4,4.7-7.7,4.5-11.8
	c11.3,7.7,24.7,8.2,31.5,8.6c7.1,0.4,13.8,1.8,15.2,5.2c0,0,2.2-38.4-76.9-63.9c0,0,23.6,10.7,31,19.3c0,0-8.4-0.5-11.9,4.9
	c-1.8,2.7-2.2,6.9-0.6,11.5c-1.3-0.2-2.8-0.4-4.4-0.5L203.8,67.7L217,96.1l-12.4-4.3l3.7,7c0.1,0.1,5.2,10,17.3,31.1
	c9.5,16.6,26.5,24.9,49,23.9c0.8,0,1.8-0.1,2.8-0.2c5.7-0.4,14.5-1.2,23-2c-0.6,3.1-0.5,6.8,0.3,11.3c1,5.2,3.1,8.5,5.8,10.6
	c-6.7,3.2-12.8,9.4-15.5,16.8c0,0,0,0,0,0c-1.9,4.6-2.4,10.2-0.1,16.7c0,0,0,0.1,0,0.1c0.5,1.3,1,2.6,1.8,4c0.7,1.3,1.6,2.6,2.7,3.7
	c14,16.6,48,13.9,69.4,4.9c0.3-0.1,0.6-0.2,0.9-0.4c1.7-0.7,3.4-1.5,5.1-2.3c0.3-0.2,0.7-0.3,1-0.5c1.8-0.9,3.6-1.8,5.4-2.9
	c21.3-12.4,28.3-26.9,28.3-26.9S384.2,201.8,363.6,193.1z M369,136.1c6,2.6,15.3,17.6,15.3,17.6c-7.7-1.2-23.1-6.2-24.7-12
	S363,133.4,369,136.1z M349.2,210.5c0,0,1.6,5-0.3,11.5c-2.1,0.6-4.4,1.1-6.7,1.5C345.9,220.7,349.2,216.5,349.2,210.5z
	 M245.5,114.4l54.5,31c-10,1-20.6,1.9-25.9,2.2c-8.1,0.4-15.4-0.6-21.8-2.8c-9.3-3.3-16.5-9.3-21.5-17.9
	c-6.2-10.8-10.5-18.7-13.3-23.8l11.3,3.9l-11.3-24.3l99.1,55c-2.7,0.4-5.4,1.2-7.8,2.4L245.5,114.4z M303.4,153.1
	c3.9-18.4,27.5-12.6,27.5-12.6c-8.6-0.2-13.6,2.2-16.1,5.6c-3.7,5.1,0.9,9,0.9,9c-1.3-0.2-2.4-0.6-3.2-1.2c0,0.1,0,0.2,0,0.2
	c2,7.1,7.8,9,7.8,9c-2.2,0.3-4.1,0.2-5.7-0.2c1.3,3,3,5.2,4.2,5.7c-5.2,0-7.9,1.2-9.9,2C304.8,167.8,301.7,161.1,303.4,153.1z
	 M319.6,193.4c0,0-8.6,10.7-27,10.7c-1.1-4.2-0.7-8.4,0.3-12.1C298.7,195.8,307.5,198,319.6,193.4z M304,218.3
	c7.9-1.8,18-6.2,27.6-17.1c0,0-1.1,11.8-10,23c-4-0.5-8.1-1.5-12-3.1C307.6,220.3,305.7,219.3,304,218.3z M378.4,208.7
	c-1.1-2.9-1.6-8.7-1.6-8.7c6.6,0.6,14.6-2.1,14.6-2.1C386.1,204.4,378.4,208.7,378.4,208.7z"/>
</svg>
