<?xml version="1.0" standalone="no"?>
<!DOCTYPE svg PUBLIC "-//W3C//DTD SVG 1.1//EN"
"http://www.w3.org/Graphics/SVG/1.1/DTD/svg11.dtd">

<svg height="308" transform="translate(0.5,0.5)" version="1.1" width="1107" xmlns="http://www.w3.org/2000/svg" xmlns:nch="http://www.nchsoftware.com/drawpad/" xmlns:xlink="http://www.w3.org/1999/xlink"><rect fill="rgb(255,255,255)" fill-opacity="1.000" height="308" id="background" width="1107" x="0" y="0"/><g class="Layer"><path d="M388,173 C388,173 399,173 399,173 C403,173 406,172 408,167 C409,164 406,163 402,163 C402,163 392,163 392,163 C392,163 388,173 388,173 C388,173 388,173 388,173M379,198 C379,198 391,198 391,198 C396,198 400,196 402,191 C403,187 401,185 397,185 C397,185 384,185 384,185 C384,185 379,198 379,198 C379,198 379,198 379,198M377,147 C377,147 413,147 413,147 C431,147 431,157 428,164 C426,170 421,174 416,177 C421,179 425,183 421,193 C417,206 403,213 391,213 C391,213 353,213 353,213 C353,213 377,147 377,147 C377,147 377,147 377,147" fill="rgb(255,187,0)" fill-opacity="1.000" fill-rule="evenodd" nch:path="388.0,172.8,388.0,172.8,398.8,172.8 398.8,172.8,403.1,172.8,406.2,171.6 407.7,167.3,408.9,164.0,406.5,162.7 402.3,162.7,402.3,162.7,391.5,162.7 391.5,162.7,391.5,162.7,388.0,172.8 388.0,172.8,388.0,172.8,388.0,172.8 388.0,172.8,388.0,172.8,379.3,197.5 M379.3,197.5,379.3,197.5,391.3,197.5 391.3,197.5,395.6,197.5,399.7,196.3 401.5,191.2,402.9,187.3,401.3,185.2 396.5,185.2,396.5,185.2,383.7,185.2 383.7,185.2,383.7,185.2,379.3,197.5 379.3,197.5,379.3,197.5,379.3,197.5 379.3,197.5,379.3,197.5,376.7,147.0 M376.7,147.0,376.7,147.0,413.0,147.0 413.0,147.0,430.5,147.0,430.7,156.9 428.3,163.6,425.9,170.3,421.4,173.9 415.5,176.6,420.7,178.6,424.6,183.4 421.2,193.1,416.5,206.4,402.5,213.3 390.8,213.3,390.8,213.3,353.2,213.3 353.2,213.3,353.2,213.3,376.7,147.0 376.7,147.0,376.7,147.0,376.7,147.0 376.7,147.0," nch:penfill="rgba(255,187,0,255)" stroke="rgb(255,255,255,0)" stroke-width="0"/><path d="M447,147 C447,147 502,147 502,147 C502,147 496,164 496,164 C496,164 461,164 461,164 C461,164 458,172 458,172 C458,172 489,172 489,172 C489,172 484,188 484,188 C484,188 453,188 453,188 C453,188 450,196 450,196 C450,196 485,196 485,196 C485,196 479,213 479,213 C479,213 423,213 423,213 C423,213 447,147 447,147 C447,147 447,147 447,147" fill="rgb(255,187,0)" fill-opacity="1.000" fill-rule="evenodd" nch:path="446.6,147.0,446.6,147.0,501.5,147.0 501.5,147.0,501.5,147.0,495.5,164.0 495.5,164.0,495.5,164.0,461.0,164.0 461.0,164.0,461.0,164.0,458.1,172.3 458.1,172.3,458.1,172.3,489.4,172.3 489.4,172.3,489.4,172.3,483.8,188.1 483.8,188.1,483.8,188.1,452.5,188.1 452.5,188.1,452.5,188.1,449.6,196.4 449.6,196.4,449.6,196.4,485.1,196.4 485.1,196.4,485.1,196.4,479.1,213.4 479.1,213.4,479.1,213.4,423.2,213.4 423.2,213.4,423.2,213.4,446.6,147.0 446.6,147.0,446.6,147.0,446.6,147.0 446.6,147.0," nch:penfill="rgba(255,187,0,255)" stroke="rgb(255,255,255,0)" stroke-width="0"/><path d="M521,164 C521,164 502,164 502,164 C502,164 508,147 508,147 C508,147 566,147 566,147 C566,147 560,164 560,164 C560,164 541,164 541,164 C541,164 524,213 524,213 C524,213 503,213 503,213 C503,213 521,164 521,164 C521,164 521,164 521,164" fill="rgb(255,187,0)" fill-opacity="1.000" fill-rule="evenodd" nch:path="520.9,164.0,520.9,164.0,502.3,164.0 502.3,164.0,502.3,164.0,508.3,147.0 508.3,147.0,508.3,147.0,565.9,147.0 565.9,147.0,565.9,147.0,559.9,164.0 559.9,164.0,559.9,164.0,541.3,164.0 541.3,164.0,541.3,164.0,523.8,213.3 523.8,213.3,523.8,213.3,503.4,213.3 503.4,213.3,503.4,213.3,520.9,164.0 520.9,164.0,520.9,164.0,520.9,164.0 520.9,164.0," nch:penfill="rgba(255,187,0,255)" stroke="rgb(255,255,255,0)" stroke-width="0"/><path d="M586,190 C586,190 587,169 587,169 C587,169 587,169 587,169 C587,169 573,190 573,190 C573,190 586,190 586,190 C586,190 586,190 586,190M585,147 C585,147 605,147 605,147 C605,147 606,213 606,213 C606,213 584,213 584,213 C584,213 585,204 585,204 C585,204 564,204 564,204 C564,204 558,213 558,213 C558,213 537,213 537,213 C537,213 585,147 585,147 C585,147 585,147 585,147" fill="rgb(255,187,0)" fill-opacity="1.000" fill-rule="evenodd" nch:path="585.7,189.6,585.7,189.6,587.0,169.2 587.0,169.2,587.0,169.2,586.8,169.2 586.8,169.2,586.8,169.2,573.1,189.6 573.1,189.6,573.1,189.6,585.7,189.6 585.7,189.6,585.7,189.6,585.7,189.6 585.7,189.6,585.7,189.6,584.8,147.0 M584.8,147.0,584.8,147.0,604.8,147.0 604.8,147.0,604.8,147.0,605.5,213.3 605.5,213.3,605.5,213.3,584.3,213.3 584.3,213.3,584.3,213.3,584.9,203.8 584.9,203.8,584.9,203.8,563.8,203.8 563.8,203.8,563.8,203.8,557.5,213.3 557.5,213.3,557.5,213.3,537.0,213.3 537.0,213.3,537.0,213.3,584.8,147.0 584.8,147.0,584.8,147.0,584.8,147.0 584.8,147.0," nch:penfill="rgba(255,187,0,255)" stroke="rgb(255,255,255,0)" stroke-width="0"/><path d="M635,147 C635,147 686,147 686,147 C686,147 680,164 680,164 C680,164 649,164 649,164 C649,164 646,172 646,172 C646,172 672,172 672,172 C672,172 667,188 667,188 C667,188 640,188 640,188 C640,188 631,213 631,213 C631,213 611,213 611,213 C611,213 635,147 635,147 C635,147 635,147 635,147" fill="rgb(58,58,58)" fill-opacity="1.000" fill-rule="evenodd" nch:path="634.5,147.0,634.5,147.0,685.8,147.0 685.8,147.0,685.8,147.0,679.8,164.0 679.8,164.0,679.8,164.0,648.9,164.0 648.9,164.0,648.9,164.0,646.0,172.3 646.0,172.3,646.0,172.3,672.5,172.3 672.5,172.3,672.5,172.3,666.9,188.1 666.9,188.1,666.9,188.1,640.4,188.1 640.4,188.1,640.4,188.1,631.4,213.4 631.4,213.4,631.4,213.4,611.0,213.4 611.0,213.4,611.0,213.4,634.5,147.0 634.5,147.0,634.5,147.0,634.5,147.0 634.5,147.0," nch:penfill="rgba(58,58,58,255)" stroke="rgb(255,255,255,0)" stroke-width="0"/><path d="M694,147 C694,147 714,147 714,147 C714,147 697,196 697,196 C697,196 726,196 726,196 C726,196 720,213 720,213 C720,213 670,213 670,213 C670,213 694,147 694,147 C694,147 694,147 694,147" fill="rgb(58,58,58)" fill-opacity="1.000" fill-rule="evenodd" nch:path="693.5,147.0,693.5,147.0,713.9,147.0 713.9,147.0,713.9,147.0,696.5,196.3 696.5,196.3,696.5,196.3,725.9,196.3 725.9,196.3,725.9,196.3,719.9,213.3 719.9,213.3,719.9,213.3,670.1,213.3 670.1,213.3,670.1,213.3,693.5,147.0 693.5,147.0,693.5,147.0,693.5,147.0 693.5,147.0," nch:penfill="rgba(58,58,58,255)" stroke="rgb(255,255,255,0)" stroke-width="0"/><path d="M751,147 C751,147 771,147 771,147 C771,147 748,213 748,213 C748,213 727,213 727,213 C727,213 751,147 751,147 C751,147 751,147 751,147" fill="rgb(58,58,58)" fill-opacity="1.000" fill-rule="evenodd" nch:path="750.7,147.0,750.7,147.0,771.1,147.0 771.1,147.0,771.1,147.0,747.6,213.3 747.6,213.3,747.6,213.3,727.2,213.3 727.2,213.3,727.2,213.3,750.7,147.0 750.7,147.0,750.7,147.0,750.7,147.0 750.7,147.0," nch:penfill="rgba(58,58,58,255)" stroke="rgb(255,255,255,0)" stroke-width="0"/><path d="M810,207 C803,212 795,215 788,215 C768,215 762,200 768,181 C777,156 799,145 814,145 C831,145 838,155 836,170 C836,170 816,170 816,170 C817,165 814,162 809,162 C795,162 790,177 789,181 C787,187 785,198 798,198 C802,198 808,196 811,191 C811,191 802,191 802,191 C802,191 807,177 807,177 C807,177 834,177 834,177 C834,177 821,213 821,213 C821,213 808,213 808,213 C808,213 810,207 810,207 C810,207 810,207 810,207" fill="rgb(58,58,58)" fill-opacity="1.000" fill-rule="evenodd" nch:path="809.8,206.5,803.2,212.4,795.2,214.9 788.0,214.9,768.4,214.9,761.7,199.7 768.4,180.8,777.4,155.5,798.7,145.4 813.7,145.4,830.6,145.4,838.0,154.6 835.5,170.2,835.5,170.2,815.9,170.2 815.9,170.2,816.9,165.4,814.0,161.9 809.2,161.9,795.2,161.9,790.4,176.7 788.8,181.2,786.6,187.4,785.3,198.3 797.7,198.3,802.4,198.3,808.1,195.9 810.9,191.0,810.9,191.0,801.9,191.0 801.9,191.0,801.9,191.0,806.9,176.8 806.9,176.8,806.9,176.8,834.0,176.8 834.0,176.8,834.0,176.8,821.1,213.3 821.1,213.3,821.1,213.3,808.2,213.3 808.2,213.3,808.2,213.3,809.8,206.5 809.8,206.5,809.8,206.5,809.8,206.5 809.8,206.5," nch:penfill="rgba(58,58,58,255)" stroke="rgb(255,255,255,0)" stroke-width="0"/><path d="M856,147 C856,147 876,147 876,147 C876,147 868,170 868,170 C868,170 887,170 887,170 C887,170 896,147 896,147 C896,147 916,147 916,147 C916,147 893,213 893,213 C893,213 872,213 872,213 C872,213 881,187 881,187 C881,187 862,187 862,187 C862,187 853,213 853,213 C853,213 833,213 833,213 C833,213 856,147 856,147 C856,147 856,147 856,147" fill="rgb(58,58,58)" fill-opacity="1.000" fill-rule="evenodd" nch:path="856.0,147.0,856.0,147.0,876.4,147.0 876.4,147.0,876.4,147.0,868.2,170.0 868.2,170.0,868.2,170.0,887.3,170.0 887.3,170.0,887.3,170.0,895.5,147.0 895.5,147.0,895.5,147.0,915.9,147.0 915.9,147.0,915.9,147.0,892.5,213.3 892.5,213.3,892.5,213.3,872.1,213.3 872.1,213.3,872.1,213.3,881.4,187.0 881.4,187.0,881.4,187.0,862.3,187.0 862.3,187.0,862.3,187.0,853.0,213.3 853.0,213.3,853.0,213.3,832.6,213.3 832.6,213.3,832.6,213.3,856.0,147.0 856.0,147.0,856.0,147.0,856.0,147.0 856.0,147.0," nch:penfill="rgba(58,58,58,255)" stroke="rgb(255,255,255,0)" stroke-width="0"/><path d="M935,164 C935,164 917,164 917,164 C917,164 923,147 923,147 C923,147 980,147 980,147 C980,147 974,164 974,164 C974,164 956,164 956,164 C956,164 938,213 938,213 C938,213 918,213 918,213 C918,213 935,164 935,164 C935,164 935,164 935,164" fill="rgb(58,58,58)" fill-opacity="1.000" fill-rule="evenodd" nch:path="935.4,164.0,935.4,164.0,916.8,164.0 916.8,164.0,916.8,164.0,922.8,147.0 922.8,147.0,922.8,147.0,980.4,147.0 980.4,147.0,980.4,147.0,974.4,164.0 974.4,164.0,974.4,164.0,955.8,164.0 955.8,164.0,955.8,164.0,938.3,213.3 938.3,213.3,938.3,213.3,917.9,213.3 917.9,213.3,917.9,213.3,935.4,164.0 935.4,164.0,935.4,164.0,935.4,164.0 935.4,164.0," nch:penfill="rgba(58,58,58,255)" stroke="rgb(255,255,255,0)" stroke-width="0"/><path d="M229,180 C229,180 206,192 213,213 C222,238 264,235 288,225 C309,216 292,209 292,209 C292,209 270,197 270,197 C270,197 238,177 238,177 C238,177 229,180 229,180 C229,180 229,180 229,180" fill="rgb(255,187,0)" fill-opacity="1.000" fill-rule="evenodd" nch:path="229.4,180.1,229.4,180.1,205.5,191.7 213.3,213.3,222.3,238.4,263.9,235.4 288.2,225.1,308.9,216.4,291.6,209.5 291.6,209.5,291.6,209.5,270.2,197.5 270.2,197.5,270.2,197.5,237.5,177.4 237.5,177.4,237.5,177.4,229.4,180.1 229.4,180.1,229.4,180.1,229.4,180.1 229.4,180.1," nch:penfill="rgba(255,187,0,255)" stroke="rgb(255,255,255,0)" stroke-width="0"/><path d="M301,215 C300,212 299,206 299,206 C306,207 314,204 314,204 C309,211 301,215 301,215 C301,215 301,215 301,215M272,228 C269,229 267,229 265,230 C268,227 272,223 272,217 C272,217 273,222 272,228 C272,228 272,228 272,228M244,231 C240,230 236,229 232,227 C230,227 228,226 227,225 C234,223 245,218 254,208 C254,208 253,219 244,231 C244,231 244,231 244,231M215,210 C214,206 214,202 215,198 C221,202 230,204 242,200 C242,200 234,210 215,210 C215,210 215,210 215,210M197,154 C189,154 181,153 175,151 C166,148 158,142 153,133 C147,122 143,114 140,109 C140,109 151,113 151,113 C151,113 140,89 140,89 C140,89 239,144 239,144 C237,144 234,145 231,146 C231,146 168,121 168,121 C168,121 222,152 222,152 C213,153 202,154 197,154 C197,154 197,154 197,154M292,142 C298,145 307,160 307,160 C299,159 284,154 282,148 C280,142 286,140 292,142 C292,142 292,142 292,142M286,199 C271,193 260,183 249,179 C255,177 260,173 264,170 C267,167 268,162 268,158 C279,166 293,167 300,167 C307,167 313,169 315,172 C315,172 317,134 238,108 C238,108 261,119 269,128 C269,128 260,127 257,132 C255,135 255,139 256,144 C255,144 254,144 252,143 C252,143 126,74 126,74 C126,74 140,102 140,102 C140,102 127,98 127,98 C127,98 131,105 131,105 C131,105 136,115 148,136 C158,153 175,161 197,160 C198,160 199,160 200,160 C206,160 214,159 223,158 C222,161 222,165 223,169 C224,174 226,178 229,180 C222,183 217,189 214,196 C214,196 214,196 214,196 C214,196 213,196 213,197 C213,197 213,197 213,197 C212,201 211,207 213,213 C213,213 213,213 213,213 C214,215 214,216 215,217 C216,219 217,220 218,221 C232,238 266,235 287,226 C288,226 288,226 288,226 C290,225 292,224 293,223 C294,223 294,223 294,223 C296,222 298,221 300,220 C321,207 328,193 328,193 C328,193 307,208 286,199 C286,199 286,199 286,199" fill="rgb(58,58,58)" fill-opacity="1.000" fill-rule="evenodd" nch:path="300.9,214.9,299.8,212.0,299.3,206.2 299.3,206.2,305.9,206.8,313.9,204.1 313.9,204.1,308.6,210.6,300.9,214.9 300.9,214.9,300.9,214.9,300.9,214.9 300.9,214.9,299.8,212.0,271.5,228.3 M271.5,228.3,269.4,228.9,267.1,229.4 264.8,229.8,268.4,227.0,271.7,222.7 271.8,216.8,271.7,216.8,273.3,221.8 271.5,228.3,271.5,228.3,271.5,228.3 271.5,228.3,269.4,228.9,244.1,230.5 M244.1,230.5,240.1,230.0,236.0,229.0 232.1,227.4,230.0,226.5,228.2,225.6 226.5,224.6,234.4,222.8,244.5,218.4 254.1,207.5,254.1,207.5,253.0,219.3 244.1,230.5,244.1,230.5,244.1,230.5 244.1,230.5,240.1,230.0,215.1,210.3 M215.1,210.3,214.0,206.1,214.4,201.9 215.4,198.2,221.2,202.1,229.9,204.2 242.1,199.6,242.1,199.6,233.5,210.3 215.1,210.3,215.1,210.3,215.1,210.3 215.1,210.3,214.0,206.1,196.7,153.8 M196.7,153.8,188.6,154.2,181.3,153.2 174.9,151.0,165.6,147.7,158.4,141.7 153.4,133.1,147.2,122.3,142.9,114.4 140.1,109.3,140.1,109.3,151.4,113.2 151.4,113.2,151.4,113.2,140.1,88.9 140.1,88.9,140.1,88.9,239.2,143.9 239.2,143.9,236.5,144.3,233.8,145.1 231.4,146.3,231.4,146.3,167.9,120.7 167.9,120.7,167.9,120.7,222.4,151.7 222.4,151.7,212.5,152.6,201.9,153.5 196.7,153.8,196.7,153.8,196.7,153.8 196.7,153.8,188.6,154.2,291.5,142.3 M291.5,142.3,297.5,144.9,306.8,159.9 306.8,159.9,299.1,158.7,283.7,153.7 282.1,147.9,280.4,142.1,285.5,139.7 291.5,142.3,291.5,142.3,291.5,142.3 291.5,142.3,297.5,144.9,286.1,199.3 M286.1,199.3,270.9,192.9,260.1,183.4 249.2,179.3,254.9,176.8,260.2,173.2 263.5,170.1,267.1,166.7,268.2,162.4 268.0,158.3,279.3,166.0,292.7,166.5 299.5,166.9,306.6,167.3,313.3,168.7 314.7,172.1,314.7,172.1,316.9,133.7 237.8,108.2,237.8,108.2,261.4,118.9 268.8,127.5,268.8,127.5,260.4,127.0 256.9,132.4,255.1,135.1,254.7,139.3 256.3,143.9,255.0,143.7,253.5,143.5 251.9,143.4,251.9,143.4,126.3,74.0 126.3,74.0,126.3,74.0,139.5,102.4 139.5,102.4,139.5,102.4,127.1,98.1 127.1,98.1,127.1,98.1,130.8,105.1 130.8,105.1,130.9,105.2,136.0,115.1 148.1,136.2,157.6,152.8,174.6,161.1 197.1,160.1,197.9,160.1,198.9,160.0 199.9,159.9,205.6,159.5,214.4,158.7 222.9,157.9,222.3,161.0,222.4,164.7 223.2,169.2,224.2,174.4,226.3,177.7 229.0,179.7,222.5,182.9,216.6,188.8 213.7,196.0,213.7,196.0,213.7,196.0 213.7,196.0,213.6,196.2,213.5,196.4 213.5,196.6,213.5,196.6,213.5,196.6 213.5,196.6,211.6,201.2,211.1,206.8 213.4,213.3,213.4,213.3,213.4,213.4 213.4,213.4,213.9,214.7,214.4,216.0 215.2,217.4,215.9,218.7,216.8,220.0 217.9,221.1,231.9,237.7,265.9,235.0 287.3,226.0,287.6,225.9,287.9,225.8 288.2,225.6,289.9,224.9,291.6,224.1 293.3,223.3,293.6,223.1,294.0,223.0 294.3,222.8,296.1,221.9,297.9,221.0 299.7,219.9,321.0,207.5,328.0,193.0 328.0,193.0,328.0,193.0,306.7,208.0 286.1,199.3,286.1,199.3,286.1,199.3 286.1,199.3," nch:penfill="rgba(58,58,58,255)" stroke="rgb(255,255,255,0)" stroke-width="0"/><path d="M252,147 C252,147 229,142 226,159 C224,167 227,174 231,176 C233,175 235,174 240,174 C239,174 237,172 236,169 C238,169 239,169 242,169 C242,169 236,167 234,161 C234,160 234,160 234,160 C235,161 236,161 237,161 C237,161 233,158 236,153 C239,150 244,147 252,147 C252,147 252,147 252,147" fill="rgb(255,187,0)" fill-opacity="1.000" fill-rule="evenodd" nch:path="251.7,147.4,251.7,147.4,228.7,141.7 225.5,159.4,224.2,166.7,226.9,173.5 230.7,176.2,232.6,175.4,235.1,174.2 240.1,174.3,239.0,173.8,237.4,171.7 236.1,168.9,237.6,169.2,239.4,169.4 241.5,169.1,241.5,169.1,236.0,167.3 234.1,160.5,234.1,160.4,234.1,160.4 234.1,160.3,234.9,160.8,235.9,161.2 237.2,161.4,237.2,161.4,232.8,157.7 236.4,152.8,238.8,149.5,243.5,147.3 251.7,147.4,251.7,147.4,251.7,147.4 251.7,147.4," nch:penfill="rgba(255,187,0,255)" stroke="rgb(255,255,255,0)" stroke-width="0"/></g></svg>